<svg xmlns="http://www.w3.org/2000/svg" width="32" height="26.704" viewBox="0 0 32 26.704">
  <g id="图表" transform="translate(-50.115 -125.809)">
    <path id="路径_33" data-name="路径 33" d="M109.532,359.737h4.084v5.109h-4.084Zm8.168-8.168h4.084v13.277H117.7Zm7.16,4.084h4.084v9.193H124.86Zm9.176-9.193h4.084v17.361h-4.084Z" transform="translate(-57.365 -213.032)" fill="#cae4ff"/>
    <path id="路径_34" data-name="路径 34" d="M109.554,143.267a2.157,2.157,0,0,0,1.98-2.97l5.109-5.109a2.15,2.15,0,0,0,.813.159,2.1,2.1,0,0,0,1.379-.53l4.42,2.21c0,.053-.035.088-.035.141a2.148,2.148,0,1,0,4.3.018,2.239,2.239,0,0,0-.159-.831l5.145-6.435a2.149,2.149,0,0,0,2.793-1.185,2.127,2.127,0,0,0-.477-2.316,2.2,2.2,0,0,0-3.041,0,2.147,2.147,0,0,0-.46,2.351l-5.145,6.435a2.175,2.175,0,0,0-2.157.371l-4.437-2.21c0-.053.035-.088.035-.141a2.139,2.139,0,0,0-3.66-1.52,2.157,2.157,0,0,0-.46,2.334l-5.127,5.127a2.232,2.232,0,0,0-2.334.46,2.15,2.15,0,0,0-.018,3.041,2.194,2.194,0,0,0,1.538.6Zm23.407-15.681a.481.481,0,0,1,.689.035.492.492,0,0,1,0,.672.514.514,0,0,1-.689,0A.5.5,0,0,1,132.961,127.586Zm-7.92,9.229a.488.488,0,0,1,.689.689.514.514,0,0,1-.689,0A.48.48,0,0,1,125.041,136.814Zm-7.92-3.96a.488.488,0,1,1,.689.689.514.514,0,0,1-.689,0A.557.557,0,0,1,117.12,132.854Zm-7.9,7.92a.488.488,0,0,1,.689.689.514.514,0,0,1-.689,0A.613.613,0,0,1,109.218,140.775Z" transform="translate(-55.302)" fill="#0972e7"/>
    <path id="路径_35" data-name="路径 35" d="M81.3,334.492h-.5V316.848a.83.83,0,0,0-.831-.831h-3.96a.83.83,0,0,0-.831.831v17.644h-2.3v-8.415a.83.83,0,0,0-.831-.831h-3.96a.83.83,0,0,0-.831.831v8.415H64.983V322.134a.83.83,0,0,0-.831-.831h-3.96a.83.83,0,0,0-.831.831v12.358h-2.3v-4.455a.83.83,0,0,0-.831-.831h-3.96a.83.83,0,0,0-.831.831v4.455h-.5a.831.831,0,1,0,0,1.662H81.283a.83.83,0,0,0,.831-.831.8.8,0,0,0-.813-.831Zm-28.2,0v-3.624h2.3v3.624Zm7.92,0V322.947h2.3v11.545Zm7.92,0v-7.584h2.3v7.584Zm7.92,0V317.679h2.3v16.813Z" transform="translate(0 -183.64)" fill="#0972e7"/>
  </g>
</svg>
