<svg xmlns="http://www.w3.org/2000/svg" width="129.738" height="108.268" viewBox="0 0 129.738 108.268">
  <g id="图表" transform="translate(-50.115 -125.809)">
    <path id="路径_33" data-name="路径 33" d="M109.532,400.289h16.557V421H109.532Zm33.115-33.115H159.2V421H142.647Zm29.029,16.557h16.557V421H171.676Zm37.2-37.272h16.557v70.387H208.876Z" transform="translate(-51.099 -189.761)" fill="#cae4ff"/>
    <path id="路径_34" data-name="路径 34" d="M116.148,196.59a8.745,8.745,0,0,0,8.028-12.042l20.715-20.715a8.715,8.715,0,0,0,3.3.645,8.514,8.514,0,0,0,5.591-2.15l17.919,8.96c0,.215-.143.358-.143.573a8.709,8.709,0,1,0,17.417.072,9.079,9.079,0,0,0-.645-3.369l20.858-26.09a8.714,8.714,0,0,0,11.325-4.8,8.624,8.624,0,0,0-1.935-9.39,8.919,8.919,0,0,0-12.328,0,8.7,8.7,0,0,0-1.864,9.533l-20.858,26.09a8.818,8.818,0,0,0-8.745,1.505l-17.991-8.96c0-.215.143-.358.143-.573a8.673,8.673,0,0,0-14.837-6.164,8.743,8.743,0,0,0-1.864,9.461l-20.786,20.786a9.048,9.048,0,0,0-9.461,1.864,8.717,8.717,0,0,0-.072,12.328,8.893,8.893,0,0,0,6.236,2.437Zm94.9-63.577a1.95,1.95,0,0,1,2.8.143,1.994,1.994,0,0,1,0,2.724,2.086,2.086,0,0,1-2.8,0A2.033,2.033,0,0,1,211.048,133.013Zm-32.111,37.415a1.977,1.977,0,0,1,2.8,2.8,2.086,2.086,0,0,1-2.8,0A1.947,1.947,0,0,1,178.937,170.428Zm-32.111-16.056a1.977,1.977,0,0,1,2.8,2.8,2.086,2.086,0,0,1-2.8,0A2.26,2.26,0,0,1,146.826,154.372Zm-32.04,32.111a1.977,1.977,0,0,1,2.8,2.8,2.086,2.086,0,0,1-2.8,0A2.484,2.484,0,0,1,114.786,186.484Z" transform="translate(-49.261)" fill="#0972e7"/>
    <path id="路径_35" data-name="路径 35" d="M176.553,390.919h-2.007V319.386a3.365,3.365,0,0,0-3.369-3.369H155.122a3.365,3.365,0,0,0-3.369,3.369v71.534h-9.318V356.8a3.365,3.365,0,0,0-3.369-3.369H123.01a3.365,3.365,0,0,0-3.369,3.369v34.118H110.4v-50.1a3.365,3.365,0,0,0-3.369-3.369H90.971a3.365,3.365,0,0,0-3.369,3.369v50.1H78.284V372.857a3.365,3.365,0,0,0-3.369-3.369H58.86a3.365,3.365,0,0,0-3.369,3.369v18.063H53.484a3.369,3.369,0,0,0,0,6.738h123a3.365,3.365,0,0,0,3.369-3.369,3.261,3.261,0,0,0-3.3-3.369Zm-114.325,0V376.226h9.318v14.694Zm32.111,0v-46.8h9.318v46.8Zm32.111,0V360.17h9.318v30.749Zm32.111,0V322.755h9.318v68.165Z" transform="translate(0 -163.58)" fill="#0972e7"/>
  </g>
</svg>
