<svg xmlns="http://www.w3.org/2000/svg" width="128.537" height="150.53" viewBox="0 0 128.537 150.53">
  <g id="闹钟" transform="translate(-74.868 0)">
    <path id="路径_36" data-name="路径 36" d="M167.9,86.932m-59.33,0A59.33,59.33,0,1,0,167.9,27.6,59.33,59.33,0,0,0,108.565,86.932Z" transform="translate(-28.741 -23.542)" fill="#ffbab0"/>
    <path id="路径_37" data-name="路径 37" d="M152.183,133.273a62.036,62.036,0,1,1,62.053-62.042A62.036,62.036,0,0,1,152.183,133.273Zm0-118.66a56.641,56.641,0,1,0,56.658,56.624,56.641,56.641,0,0,0-56.658-56.624Z" transform="translate(-13.046 -7.848)" fill="#783741"/>
    <path id="路径_38" data-name="路径 38" d="M181.245,61.212A18.807,18.807,0,0,0,145.136,68.6c0,5.192,4.533,12.685,7.932,16.084C161.1,75.25,169.22,65.22,181.245,61.212Z" transform="translate(-59.934 -42.456)" fill="#fff"/>
    <path id="路径_39" data-name="路径 39" d="M129.624,65.354a3.991,3.991,0,0,1-2.858-1.184c-3.788-3.788-9.116-12.16-9.116-18.942a22.849,22.849,0,0,1,43.855-9,4.042,4.042,0,0,1-2.419,5.429c-10.418,3.484-17.978,12.4-25.369,20.989l-1.082,1.285a4.059,4.059,0,0,1-2.926,1.421ZM140.5,30.463a14.782,14.782,0,0,0-14.748,14.765c0,2.571,1.793,6.545,3.941,9.742,6.393-7.442,13.141-14.765,22.223-19.111a14.748,14.748,0,0,0-11.416-5.4Z" transform="translate(-36.49 -19.081)" fill="#783741"/>
    <path id="路径_40" data-name="路径 40" d="M633.329,61.442a18.807,18.807,0,0,1,36.092,7.391,26,26,0,0,1-6.765,15.661c-8.017-9.437-17.3-19.044-29.327-23.052Z" transform="translate(-476.332 -42.685)" fill="#fff"/>
    <path id="路径_41" data-name="路径 41" d="M639.209,65.082h-.169a4.042,4.042,0,0,1-2.909-1.421C628.3,54.494,619.556,45.5,608.563,41.81a4.042,4.042,0,0,1-2.436-5.429,22.866,22.866,0,0,1,43.872,9c0,6.63-4.042,14.613-7.932,18.6a4.042,4.042,0,0,1-2.858,1.1ZM615.751,35.975c9.082,4.211,16.541,11.179,23.2,18.6a20.682,20.682,0,0,0,2.943-9.217,14.765,14.765,0,0,0-26.147-9.387Z" transform="translate(-452.851 -19.231)" fill="#783741"/>
    <path id="路径_42" data-name="路径 42" d="M277.638,765.562l-22.41,22.409-.034-35.956,22.443,13.547Z" transform="translate(-153.807 -641.422)" fill="#ffbab0"/>
    <path id="路径_43" data-name="路径 43" d="M231.981,768.531a4.042,4.042,0,0,1-4.042-4.042V728.532a4.042,4.042,0,0,1,6.139-3.383l22.443,13.53a4.093,4.093,0,0,1,1.911,2.977,4.042,4.042,0,0,1-1.15,3.383l-22.443,22.376a4.026,4.026,0,0,1-2.858,1.116Zm4.025-32.828V754.8l11.839-11.839Z" transform="translate(-130.56 -618.007)" fill="#783741"/>
    <path id="路径_44" data-name="路径 44" d="M625.394,765.562l22.393,22.409.034-35.956-22.426,13.547Z" transform="translate(-469.564 -641.422)" fill="#ffbab0"/>
    <path id="路径_45" data-name="路径 45" d="M624.3,768.515a4.025,4.025,0,0,1-2.858-1.184L599.05,744.989a4.042,4.042,0,0,1,.761-6.325l22.443-13.53a4.025,4.025,0,0,1,6.122,3.383V764.54a4.059,4.059,0,0,1-2.571,3.738,4.18,4.18,0,0,1-1.505.237ZM608.42,742.926l11.839,11.839v-19.01Z" transform="translate(-446.079 -617.991)" fill="#783741"/>
    <path id="路径_46" data-name="路径 46" d="M167.9,160.3m-59.33,0a59.33,59.33,0,1,0,59.33-59.33,59.33,59.33,0,0,0-59.33,59.33Z" transform="translate(-28.741 -86.125)" fill="#ffbab0"/>
    <path id="路径_47" data-name="路径 47" d="M152.183,206.646A62.036,62.036,0,1,1,214.236,144.6,62.036,62.036,0,0,1,152.183,206.646Zm0-118.677a56.641,56.641,0,1,0,56.658,56.647,56.641,56.641,0,0,0-56.658-56.647Z" transform="translate(-13.046 -70.43)" fill="#783741"/>
    <path id="路径_48" data-name="路径 48" d="M178.222,150.524a3.991,3.991,0,0,1-2.791-1.133l-14.9-14.308a65.249,65.249,0,0,1-20.938,3.078,68.378,68.378,0,0,1-20.3-2.469l-15.222,13.784a4.042,4.042,0,0,1-6.765-2.994V123.616A68.565,68.565,0,0,1,74.868,74.18V63.389A62.256,62.256,0,0,1,83,33.978a20.549,20.549,0,0,1-1.844-7.831A22.866,22.866,0,0,1,113.548,5.379a63.643,63.643,0,0,1,51.212,0,22.866,22.866,0,0,1,32.388,20.769,24.22,24.22,0,0,1-1.691,8.186,62.307,62.307,0,0,1,7.949,29.056V74.18a69.224,69.224,0,0,1-21.141,48.54v23.83a4.076,4.076,0,0,1-2.469,3.721,3.991,3.991,0,0,1-1.573.254ZM104.009,11.383A14.782,14.782,0,0,0,89.261,26.148a15.424,15.424,0,0,0,1.894,6.19,4.059,4.059,0,0,1-.1,3.788c-5.378,9.539-8.1,18.621-8.1,27.263V74.18a59.922,59.922,0,0,0,21.023,44.515,4.11,4.11,0,0,1,1.454,3.078v15.594l10.148-9.251a4.008,4.008,0,0,1,4.144-.795c5.074,1.911,11.213,2.774,19.8,2.774a54.459,54.459,0,0,0,20.431-3.383,4.076,4.076,0,0,1,4.3.846l9.945,9.437V120.927a4.076,4.076,0,0,1,1.37-3.044,60.531,60.531,0,0,0,19.771-43.7V63.389c0-8.456-2.638-17.488-7.848-26.841a4.093,4.093,0,0,1-.169-3.6,18.08,18.08,0,0,0,1.691-6.765,14.748,14.748,0,0,0-22.156-12.769,4.059,4.059,0,0,1-3.755.118,55.373,55.373,0,0,0-47.9,0,4.008,4.008,0,0,1-3.788-.152,14.782,14.782,0,0,0-7.408-2Z" fill="#783741"/>
    <path id="路径_49" data-name="路径 49" d="M253.921,246.331m-44.5,0a44.5,44.5,0,1,0,44.5-44.5,44.5,44.5,0,0,0-44.5,44.5Z" transform="translate(-114.767 -172.151)" fill="#fff"/>
    <path id="路径_50" data-name="路径 50" d="M238.112,277.725a47.2,47.2,0,1,1,47.2-47.2,47.2,47.2,0,0,1-47.2,47.2Zm0-89a41.808,41.808,0,1,0,41.825,41.814A41.808,41.808,0,0,0,238.112,188.73Z" transform="translate(-98.975 -156.359)" fill="#783741"/>
    <path id="路径_51" data-name="路径 51" d="M520.817,333.218H496.141a2.706,2.706,0,0,1-2.706-2.689v-27.06a2.706,2.706,0,1,1,5.4,0v24.354h21.987a2.706,2.706,0,0,1,0,5.4Z" transform="translate(-357.004 -256.349)" fill="#783741"/>
    <path id="路径_52" data-name="路径 52" d="M476.2,468.607m-6.173,0a6.173,6.173,0,1,0,6.173-6.173A6.173,6.173,0,0,0,470.023,468.607Z" transform="translate(-337.043 -394.427)" fill="#ffbab0"/>
    <path id="路径_53" data-name="路径 53" d="M460.485,461.872a8.862,8.862,0,1,1,8.862-8.862A8.862,8.862,0,0,1,460.485,461.872Zm0-12.329a3.383,3.383,0,1,0,3.467,3.383A3.467,3.467,0,0,0,460.485,449.543Z" transform="translate(-321.348 -378.83)" fill="#783741"/>
    <path id="路径_54" data-name="路径 54" d="M292.684,246.952A2.469,2.469,0,1,1,290.2,244.5a2.469,2.469,0,0,1,2.486,2.452Zm35.754,35.771a2.452,2.452,0,1,1-.718-1.751A2.469,2.469,0,0,1,328.437,282.723Zm-35.754,35.754a2.469,2.469,0,1,1-2.486-2.469,2.469,2.469,0,0,1,2.486,2.469Zm-35.771-35.754a2.452,2.452,0,1,1-.712-1.745A2.469,2.469,0,0,1,256.913,282.723Z" transform="translate(-151.06 -208.543)" fill="#783741"/>
  </g>
</svg>
