<svg xmlns="http://www.w3.org/2000/svg" width="129.158" height="83.28" viewBox="0 0 129.158 83.28">
  <g id="云" transform="translate(-76.189 -168.553)">
    <path id="路径_55" data-name="路径 55" d="M206.4,229.909c.008-.33.049-.656.049-.989a32.275,32.275,0,0,0-61.432-13.86,16.492,16.492,0,0,0-23.826,12.033,24.99,24.99,0,0,0,8.05,48.645h77.209v0a22.913,22.913,0,0,0-.049-45.825Z" transform="translate(-23.904 -23.906)" fill="#98c4d8"/>
    <path id="路径_56" data-name="路径 56" d="M178.331,201.836c.008-.33.049-.656.049-.989a32.275,32.275,0,0,0-61.432-13.86A16.492,16.492,0,0,0,93.121,199.02a24.99,24.99,0,0,0,8.05,48.645H178.38v0a22.913,22.913,0,0,0-.049-45.825Z" fill="#efd9a0"/>
    <path id="路径_57" data-name="路径 57" d="M368.28,302.769c1.172,1.707,5.063,1.071,8.689-1.42s5.616-5.894,4.444-7.6-5.063-1.071-8.689,1.42S367.108,301.063,368.28,302.769Z" transform="translate(-248.447 -105.796)" fill="#fefefe"/>
    <path id="路径_58" data-name="路径 58" d="M314.435,415.65c.782,1.138,3.029.951,5.02-.416s2.972-3.4,2.19-4.537-3.029-.951-5.02.416S313.653,414.512,314.435,415.65Z" transform="translate(-202.652 -205.566)" fill="#fefefe"/>
  </g>
</svg>
