<?xml version="1.0" standalone="no"?><!DOCTYPE svg PUBLIC "-//W3C//DTD SVG 1.1//EN" "http://www.w3.org/Graphics/SVG/1.1/DTD/svg11.dtd"><svg t="1651076132123" class="icon" viewBox="0 0 1024 1024" version="1.1" xmlns="http://www.w3.org/2000/svg" p-id="3601" xmlns:xlink="http://www.w3.org/1999/xlink" width="200" height="200"><defs><style type="text/css">@font-face { font-family: feedback-iconfont; src: url("//at.alicdn.com/t/font_1031158_u69w8yhxdu.woff2?t=1630033759944") format("woff2"), url("//at.alicdn.com/t/font_1031158_u69w8yhxdu.woff?t=1630033759944") format("woff"), url("//at.alicdn.com/t/font_1031158_u69w8yhxdu.ttf?t=1630033759944") format("truetype"); }
</style></defs><path d="M378.237 781.775l52.988 0 0-261.169-42.075 0c-1.575 9.872-4.697 18.197-9.422 24.919-4.697 6.75-10.491 12.094-17.381 16.2-6.806 4.106-14.541 6.975-23.091 8.606-8.578 1.631-17.522 2.306-26.719 2.109l0 39.881 65.672 0 0 169.453zM618.734 727.831c-3.853 4.641-8.55 8.297-14.175 11.137-5.569 2.925-11.841 4.275-18.816 4.275-11.925 0-21.797-3.488-29.447-10.603-7.734-7.088-12.206-16.65-13.472-28.603l-53.044 0c0.253 13.697 3.066 25.734 8.494 36.056 5.231 10.322 12.459 18.956 21.431 25.931 8.972 7.003 19.209 12.122 30.741 15.497 11.587 3.403 23.709 5.062 36.394 5.062 13.162 0.253 25.594-2.025 37.294-6.525 11.728-4.584 21.938-11.109 30.741-19.575 8.887-8.494 15.919-18.45 21.178-30.066 5.147-11.475 7.819-24.047 7.819-37.491 0-12.178-1.772-23.709-5.428-34.481-3.572-10.913-8.831-20.278-15.778-28.294-6.75-7.903-15.159-14.231-25.116-18.956-9.9-4.669-21.347-7.088-34.341-7.088-10.378 0-19.744 1.603-28.013 4.669-8.184 3.066-15.834 8.269-23.063 15.497l-0.703-0.731 10.378-59.288 107.831 0 0-43.65-145.856 0-25.791 144.338 47.756 0c5.288-7.228 10.884-12.544 16.875-15.863 5.962-3.347 13.669-5.034 23.119-5.034 7.256 0 13.556 1.237 19.013 3.769 5.484 2.475 10.153 5.963 14.231 10.434 3.909 4.444 6.919 9.731 8.944 15.638 1.969 6.047 2.925 12.375 2.925 19.069 0 6.412-0.984 12.713-3.122 18.9-2.166 6.019-5.091 11.306-9 15.975zM263.459 273.838l61.791 0c9.281 0 16.931-7.509 16.931-16.847l0-135.928c0-9.253-7.65-16.875-16.931-16.875l-61.791 0c-9.366 0-16.875 7.622-16.875 16.875l0 135.956c0 9.309 7.509 16.819 16.875 16.819zM698.806 273.838l61.734 0c9.45 0 16.931-7.509 16.931-16.847l0-135.928c0-9.253-7.481-16.875-16.931-16.875l-61.734 0c-9.309 0-16.875 7.622-16.875 16.875l0 135.956c0 9.309 7.566 16.819 16.875 16.819zM833.497 169.156l-21.853 0 0 87.862c0 28.125-22.809 51.019-51.075 51.019l-61.734 0c-28.153 0-51.075-22.894-51.075-51.019l0-87.863-271.378 0 0 87.863c0 28.125-22.95 51.019-51.075 51.019l-61.847 0c-28.153 0-51.075-22.894-51.075-51.019l0-87.863-21.881 0c-54.225 0-98.269 44.044-98.269 98.297l0 553.978c0 54.337 44.044 98.381 98.269 98.381l642.994 0c54.337 0 98.269-44.044 98.269-98.381l0-553.978c0-54.253-43.959-98.297-98.269-98.297zM869.609 821.431c0 19.997-16.172 36.197-36.113 36.197l-642.994 0c-19.913 0-36.113-16.2-36.113-36.197l0-371.531 715.219 0 0 371.531z" p-id="3602"></path></svg>