<svg xmlns="http://www.w3.org/2000/svg" width="34.958" height="34.958" viewBox="0 0 34.958 34.958">
  <g id="导出" transform="translate(-12.191)">
    <path id="路径_61" data-name="路径 61" d="M12.191,0H47.148V34.958H12.191Z" fill="rgba(144,144,144,0)"/>
    <path id="路径_62" data-name="路径 62" d="M97.524,426.667m1.457,0H125.2a1.287,1.287,0,0,1,1.457,1.457v14.566a1.287,1.287,0,0,1-1.457,1.457H98.98a1.287,1.287,0,0,1-1.457-1.457V428.124A1.287,1.287,0,0,1,98.98,426.667Z" transform="translate(-82.42 -412.101)" fill="rgba(74,144,226,0.6)"/>
    <path id="路径_63" data-name="路径 63" d="M256,51.716,264.909,61.9a.583.583,0,0,1-.44.966H246.646a.583.583,0,0,1-.44-.966l8.914-10.186a.583.583,0,0,1,.877,0Z" transform="translate(-225.888 -49.759)" fill="#4a90e2"/>
    <path id="路径_64" data-name="路径 64" d="M396.19,384h8.74v11.653h-8.74Zm0,13.109h8.74v1.457h-8.74Z" transform="translate(-370.89 -370.891)" fill="#4a90e2"/>
    <path id="路径_65" data-name="路径 65" d="M534.181,607.323m-1.457,0a1.457,1.457,0,1,0,1.457-1.457A1.457,1.457,0,0,0,532.724,607.323Z" transform="translate(-502.763 -585.183)" fill="#e02020"/>
  </g>
</svg>
