<svg xmlns="http://www.w3.org/2000/svg" width="64" height="68.968" viewBox="0 0 64 68.968">
  <g id="山竹" transform="translate(-115.84 -68.864)">
    <path id="路径_1" data-name="路径 1" d="M149.479,232.433s-21.491,3.949-17.96,27.731,32.846,22.555,41.442,19.928,25.787-11.819,17.96-33.657c-4.143-11.257-13.813-14.279-18.418-14S149.479,232.433,149.479,232.433Z" transform="translate(-14.184 -144.724)" fill="#acacef"/>
    <path id="路径_2" data-name="路径 2" d="M152.911,289.156a20.709,20.709,0,0,1-11-13.282c-2.691-10.692,1.607-21.883,1.607-21.883l2.193-3.676c-6.119,2.483-16.7,9.321-14.125,26.46,3.578,23.785,33.28,22.555,41.989,19.928a34.494,34.494,0,0,0,13.263-7.43,38.359,38.359,0,0,1-33.928-.118Z" transform="translate(-14.244 -161.333)" fill="#9e9aea"/>
    <path id="路径_3" data-name="路径 3" d="M147.662,275.348c-6.093,0-13.259-1.21-19.306-5.037-6.858-4.34-10.934-11.154-12.119-20.262-1.888-14.514,3.32-22.7,8.022-27.008a25.368,25.368,0,0,1,10.836-5.923,1.132,1.132,0,0,1,.267-.025c.185,0,18.343.307,22.827,0,4.912-.336,13.884,3.1,18.528,13.931a1.269,1.269,0,0,1-.634,1.659,1.223,1.223,0,0,1-1.625-.647c-4.134-9.641-11.9-12.708-16.105-12.427-4.418.3-21,.038-22.885,0a23.491,23.491,0,0,0-9.647,5.377c-6.134,5.68-8.54,14-7.146,24.731,1.082,8.322,4.772,14.527,10.971,18.451,10.058,6.365,23.909,4.852,28.681,3.184,4.007-1.4,23.7-9.587,17.99-33.516a1.265,1.265,0,0,1,.905-1.525,1.234,1.234,0,0,1,1.493.924c6.22,26.055-15.229,34.973-19.59,36.5a37.62,37.62,0,0,1-11.465,1.6Z" transform="translate(0 -137.516)" fill="#000f04"/>
    <path id="路径_4" data-name="路径 4" d="M239.735,148.631c-2.172-2.039-10.973-9.244-17.205,1.323a2.337,2.337,0,0,0,.643,3.1,13.6,13.6,0,0,0,6.772,2.084.52.52,0,0,1,.406.805c-.979,1.489-2.564,4.98.163,9.428a2.343,2.343,0,0,0,2.427,1.086c5.989-1.138,7.74-3,9.162-5.7a.613.613,0,0,1,1.016-.1c2.387,2.9,5.013,5.01,11.549,3.495a2.328,2.328,0,0,0,1.781-1.94c.539-3.949-.532-7.127-2.435-8.745a.557.557,0,0,1,.259-.964,8.009,8.009,0,0,0,4-2.195,2.314,2.314,0,0,0,.03-3.133c-2.989-3.362-10.563-7.618-17.645,1.389a.627.627,0,0,1-.924.066Z" transform="translate(-98.686 -68.946)" fill="#bfe5bd"/>
    <path id="路径_5" data-name="路径 5" d="M254.295,154.632c-9.824-.757-8.5-5.826-5.959-9.173l-.059.011a13.416,13.416,0,0,0-3.2,1.227,14.415,14.415,0,0,0-3.225,2.634,7.714,7.714,0,0,0-1.282,2.117,3.89,3.89,0,0,0-.34-.521.628.628,0,0,1-.473-.17,19.023,19.023,0,0,0-1.818-1.507,4.649,4.649,0,0,0-1.071-.24c-7.456,6.6-12.148,5.161-14.482,3.41a2.332,2.332,0,0,0,.805,2.76,13.6,13.6,0,0,0,6.772,2.084.52.52,0,0,1,.406.805,8.184,8.184,0,0,0-1.352,4.208c3.927-6.022,9.214-6.513,10.119-5.313,3.362,4.866-5.387,11.457-5.394,11.464,5.364-1.149,7.023-2.963,8.383-5.542a.613.613,0,0,1,1.016-.1c1.592,1.929,3.292,3.51,6.177,3.9a10.822,10.822,0,0,1,1.142.092c-3.916-1.1-7.755-5.9-6.657-9.2s10.777-1.448,10.777-1.448a5.787,5.787,0,0,0-.547-.539.558.558,0,0,1,.259-.968Z" transform="translate(-98.707 -71.068)" fill="#a2dd9e"/>
    <path id="路径_6" data-name="路径 6" d="M218.369,153.425a3.483,3.483,0,0,1-2.952-1.655,11.781,11.781,0,0,1-1.245-2.712,10.1,10.1,0,0,1-.277-1.119,1.109,1.109,0,1,1,2.18-.406,8.328,8.328,0,0,0,.214.872,9.748,9.748,0,0,0,1.02,2.209,1.234,1.234,0,0,0,1.275.576c5.856-1.112,7.215-2.9,8.39-5.128a1.7,1.7,0,0,1,1.341-.905,1.725,1.725,0,0,1,1.511.621c2.1,2.546,4.334,4.537,10.444,3.118a1.221,1.221,0,0,0,.935-1.009c.454-3.318-.333-6.288-2.054-7.751a1.649,1.649,0,0,1-.532-1.659,1.667,1.667,0,0,1,1.271-1.234,6.93,6.93,0,0,0,3.44-1.881,1.208,1.208,0,0,0,0-1.629,10.5,10.5,0,0,0-7.751-3.628c-2.915.089-5.671,1.759-8.191,4.965a1.735,1.735,0,0,1-2.549.188c-1.138-1.068-5.165-4.511-9.247-3.927-2.383.34-4.485,2.025-6.244,5.006a1.227,1.227,0,0,0,.333,1.633,12.5,12.5,0,0,0,6.192,1.88,1.63,1.63,0,0,1,1.264,2.523,7.092,7.092,0,0,0-.658,1.252,1.109,1.109,0,1,1-2.054-.835,8.5,8.5,0,0,1,.377-.813,13.965,13.965,0,0,1-6.41-2.209,3.431,3.431,0,0,1-.953-4.563c2.117-3.591,4.755-5.634,7.84-6.074,4.589-.654,8.782,2.449,10.7,4.16,2.863-3.48,6.07-5.3,9.539-5.405a12.784,12.784,0,0,1,9.476,4.371,3.434,3.434,0,0,1-.055,4.637,8.933,8.933,0,0,1-3.628,2.254c1.821,2.073,2.6,5.364,2.1,9.037a3.452,3.452,0,0,1-2.63,2.871c-6.864,1.589-9.879-.658-12.188-3.321-1.611,2.727-3.868,4.541-9.594,5.63a3.313,3.313,0,0,1-.628.059Z" transform="translate(-84.535 -54.761)" fill="#000f04"/>
    <path id="路径_7" data-name="路径 7" d="M440.257,84.224s-4.847,5.49-5.582,11.808c-.044.868,1.326,2.287,4.119,1.282,1.1-.41.916-1.877.916-3.066s2.379-8.069,3.569-9.3a6.33,6.33,0,0,0-3.022-.724Z" transform="translate(-292.756 -14.252)" fill="#a2dd9e"/>
    <path id="路径_8" data-name="路径 8" d="M422.782,84.518a3.852,3.852,0,0,1-2.335-.713,2.506,2.506,0,0,1-1.1-2.084.453.453,0,0,1,.007-.07c.765-6.584,5.645-12.177,5.852-12.413a1.1,1.1,0,0,1,.831-.373,6.99,6.99,0,0,1,3.691.949,1.1,1.1,0,0,1,.436.8,1.121,1.121,0,0,1-.31.857c-.942.972-3.229,7.489-3.259,8.531,0,.137,0,.281,0,.429.022,1.208.055,3.037-1.64,3.672a6.427,6.427,0,0,1-2.18.417Zm-1.212-2.708a.772.772,0,0,0,.34.307,2.829,2.829,0,0,0,2.287-.1c.214-.081.2-1.038.188-1.552,0-.159-.007-.318-.007-.473,0-1.131,1.622-6.162,3.018-8.771a7.883,7.883,0,0,0-.861-.118c-1.06,1.326-4.36,5.789-4.965,10.7Zm15.912,38.423a1.108,1.108,0,0,1-.514-2.091c4.962-2.586,7.8-6.528,8.423-11.712a1.109,1.109,0,0,1,2.2.266c-.5,4.093-2.564,9.742-9.6,13.411A1.121,1.121,0,0,1,437.482,120.232Zm8.93-17.782a1.105,1.105,0,0,1-1.094-.949l-.229-1.581a1.109,1.109,0,1,1,2.195-.318l.229,1.581a1.108,1.108,0,0,1-1.1,1.267Z" transform="translate(-275.083)" fill="#000f04"/>
  </g>
</svg>
