<?xml version="1.0" standalone="no"?><!DOCTYPE svg PUBLIC "-//W3C//DTD SVG 1.1//EN" "http://www.w3.org/Graphics/SVG/1.1/DTD/svg11.dtd"><svg t="1650551433605" class="icon" viewBox="0 0 1024 1024" version="1.1" xmlns="http://www.w3.org/2000/svg" p-id="2069" xmlns:xlink="http://www.w3.org/1999/xlink" width="200" height="200"><defs><style type="text/css">@font-face { font-family: feedback-iconfont; src: url("//at.alicdn.com/t/font_1031158_u69w8yhxdu.woff2?t=1630033759944") format("woff2"), url("//at.alicdn.com/t/font_1031158_u69w8yhxdu.woff?t=1630033759944") format("woff"), url("//at.alicdn.com/t/font_1031158_u69w8yhxdu.ttf?t=1630033759944") format("truetype"); }
</style></defs><path d="M133.31 296.552h757.207c19.782 0 35.951-16.169 35.951-35.95 0-19.782-15.997-35.952-35.95-35.952H133.31c-19.782 0-35.951 16.17-35.951 35.951 0 19.782 16.17 35.951 35.95 35.951zM890.517 476.135H133.311c-19.782 0-35.951 16.17-35.951 35.951 0 19.782 16.17 35.951 35.95 35.951h757.207c19.782 0 35.951-16.17 35.951-35.951 0-19.782-16.17-35.95-35.95-35.95zM890.517 727.448H133.311c-19.782 0-35.951 15.997-35.951 35.95s16.17 35.952 35.95 35.952h757.207c19.782 0 35.951-15.998 35.951-35.951s-16.17-35.951-35.95-35.951z" p-id="2070"></path></svg>