<?xml version="1.0" standalone="no"?><!DOCTYPE svg PUBLIC "-//W3C//DTD SVG 1.1//EN" "http://www.w3.org/Graphics/SVG/1.1/DTD/svg11.dtd"><svg t="1651075400059" class="icon" viewBox="0 0 1040 1024" version="1.1" xmlns="http://www.w3.org/2000/svg" p-id="2117" xmlns:xlink="http://www.w3.org/1999/xlink" width="203.125" height="200"><defs><style type="text/css">@font-face { font-family: feedback-iconfont; src: url("//at.alicdn.com/t/font_1031158_u69w8yhxdu.woff2?t=1630033759944") format("woff2"), url("//at.alicdn.com/t/font_1031158_u69w8yhxdu.woff?t=1630033759944") format("woff"), url("//at.alicdn.com/t/font_1031158_u69w8yhxdu.ttf?t=1630033759944") format("truetype"); }
</style></defs><path d="M807.280423 1024H178.793651c-97.52381 0-178.793651-81.269841-178.793651-178.793651V216.719577C0 119.195767 81.269841 37.925926 178.793651 37.925926h422.603174s16.253968 0 16.253969 21.671958-16.253968 21.671958-16.253969 21.671957H178.793651C102.941799 81.269841 43.343915 140.867725 43.343915 216.719577v628.486772c0 75.851852 59.597884 135.449735 135.449736 135.449736h628.486772c75.851852 0 135.449735-59.597884 135.449736-135.449736V482.201058s0-16.253968 21.671957-16.253968 21.671958 16.253968 21.671958 16.253968v363.005291c0 102.941799-81.269841 178.793651-178.793651 178.793651z m-471.365079-330.497354l81.269841-276.317461L785.608466 54.179894l32.507936-32.507936c27.089947-27.089947 70.433862-27.089947 97.52381 0l108.359788 108.359788c10.835979 10.835979 16.253968 27.089947 16.253968 43.343915 0 16.253968-5.417989 37.925926-21.671957 48.761905l-65.015873 65.015873-335.915344 335.915344-281.73545 70.433863z m119.195767-254.645503l-54.179894 195.047619 195.047619-54.179894 357.587302-352.169312 37.925925-37.925926c5.417989-5.417989 10.835979-10.835979 10.835979-21.671958 0-5.417989 0-10.835979-5.417989-16.253968l-108.359788-108.359789c-10.835979-10.835979-27.089947-10.835979-37.925926 0L785.608466 108.359788 455.111111 438.857143z" p-id="2118"></path></svg>