<svg xmlns="http://www.w3.org/2000/svg" width="33.667" height="33.667" viewBox="0 0 33.667 33.667">
  <g id="通知" transform="translate(-64 -64)">
    <path id="路径_69" data-name="路径 69" d="M441.018,441.018m-9.018,0A9.018,9.018,0,1,0,441.018,432,9.018,9.018,0,0,0,432,441.018Z" transform="translate(-354.173 -354.173)" fill="#eefaf0"/>
    <path id="路径_70" data-name="路径 70" d="M96.164,91.054h-2.1V79.026A13.273,13.273,0,0,0,82.487,65.905v-.252a1.653,1.653,0,0,0-3.307,0v.252A13.273,13.273,0,0,0,67.607,79.026V91.054H65.5a1.5,1.5,0,0,0,0,3.006H77.08a3.757,3.757,0,0,0,7.507,0H96.164a1.5,1.5,0,0,0,0-3.006Zm-15.33,4.208a1.355,1.355,0,0,1-1.345-1.2h2.687A1.348,1.348,0,0,1,80.833,95.262Zm10.22-4.212H70.613V79.026a10.071,10.071,0,0,1,.8-3.96,10.375,10.375,0,0,1,5.456-5.456,10.155,10.155,0,0,1,7.921,0,10.375,10.375,0,0,1,5.456,5.456,10.071,10.071,0,0,1,.8,3.96Z" fill="#1cc6a1"/>
    <path id="路径_71" data-name="路径 71" d="M645.353,456A1.357,1.357,0,0,0,644,457.353v6.313a1.353,1.353,0,0,0,2.705,0v-6.313A1.357,1.357,0,0,0,645.353,456Z" transform="translate(-558.207 -377.271)" fill="#08b28a"/>
  </g>
</svg>
