<svg xmlns="http://www.w3.org/2000/svg" width="128" height="130.372" viewBox="0 0 128 130.372">
  <g id="存钱罐" transform="translate(-90.062 -86.836)">
    <path id="路径_9" data-name="路径 9" d="M256.4,176.325a.656.656,0,0,1,.031-.644,24.183,24.183,0,0,0,3.662-15.71c-1.141-8.666-2.188-13.755-2.553-15.415a.666.666,0,0,0-.753-.512l-13.121,1.893a.07.07,0,0,0-.039.008c-.4.031-6.991.6-11.864,4.158a.65.65,0,0,1-.706.054,59.443,59.443,0,0,0-9.311-4.019,1.579,1.579,0,0,1-.993-2.064l.1-.272a2.208,2.208,0,0,0-2.064-3H187.526a2.208,2.208,0,0,0-2.041,3.064,1.585,1.585,0,0,1-.993,2.118,59.009,59.009,0,0,0-9.575,4.058.669.669,0,0,1-.691-.047c-4.849-3.452-11.3-4-11.7-4.034a.07.07,0,0,1-.039-.008l-13.121-1.893a.672.672,0,0,0-.753.512c-.365,1.66-1.412,6.75-2.553,15.416A24.2,24.2,0,0,0,149.5,175.34a.642.642,0,0,1,.023.636,59.412,59.412,0,0,0,4.842,61.468.683.683,0,0,1,.124.357l.854,22.615a2.154,2.154,0,0,0,2.149,2.071h4.089a2.168,2.168,0,0,0,1.932-1.195l4.058-7.952c.178-.357,4,.209,4.337.419a59.426,59.426,0,0,0,62.181-.085.669.669,0,0,1,.954.272l3.647,7.355a2.145,2.145,0,0,0,1.932,1.195h7.93a2.149,2.149,0,0,0,2.149-2.071l.869-22.918a.748.748,0,0,1,.116-.357,59.67,59.67,0,0,0,4.71-60.824ZM201.407,233.17c-12.531,0-25.17-8.775-25.17-21.3s11.243-26.192,23.774-26.192,24.371,11.909,24.371,24.438a23.252,23.252,0,0,1-22.975,23.057Z" transform="translate(-46.443 -47.2)" fill="#ffa750"/>
    <path id="路径_10" data-name="路径 10" d="M201.266,217.208h-8.2a4.486,4.486,0,0,1-4.048-2.517l-3-6.045a63.71,63.71,0,0,1-63.648.084l-2.954,5.961a4.479,4.479,0,0,1-4.048,2.51h-8.2a4.506,4.506,0,0,1-4.515-4.354l-.865-22.887a63.712,63.712,0,0,1-5.3-64.712,27.331,27.331,0,0,1-3.42-16.536c1.186-8.991,2.265-14.309,2.678-16.176a3,3,0,0,1,3.344-2.311L112.6,92.177a29.729,29.729,0,0,1,12.35,4.025,64.56,64.56,0,0,1,8.792-3.7,4.58,4.58,0,0,1,4.453-5.67h32.306a4.584,4.584,0,0,1,4.407,5.846,63.1,63.1,0,0,1,8.486,3.642,29.538,29.538,0,0,1,12.534-4.147l13.513-1.951a3,3,0,0,1,3.344,2.311c.413,1.859,1.492,7.154,2.678,16.13a27.33,27.33,0,0,1-3.642,16.979,63.954,63.954,0,0,1-5.165,63.992l-.88,23.208a4.512,4.512,0,0,1-4.515,4.362ZM186.689,203.4a3.075,3.075,0,0,1,.826.115,3,3,0,0,1,1.852,1.546l3.765,7.6,8.065-.038.9-23.614a3.006,3.006,0,0,1,.536-1.6,59.378,59.378,0,0,0,4.7-60.511,2.945,2.945,0,0,1,.145-2.908,22.821,22.821,0,0,0,3.443-14.76c-.926-7.017-1.783-11.715-2.3-14.232l-12.067,1.745a1.038,1.038,0,0,1-.153.015c-.306.023-6.6.559-11.118,3.864a3,3,0,0,1-3.176.222,59.129,59.129,0,0,0-9.259-4,3.991,3.991,0,0,1-2.334-2.066,3.907,3.907,0,0,1-.115-3.076l.107-.283-32.3.015a3.845,3.845,0,0,1-.046,3.13,3.962,3.962,0,0,1-2.38,2.112,59.775,59.775,0,0,0-9.527,4.033,2.969,2.969,0,0,1-3.122-.207c-4.515-3.214-10.674-3.734-10.934-3.749-.054-.008-.153-.015-.207-.023L99.933,94.985c-.513,2.517-1.37,7.231-2.3,14.278a22.394,22.394,0,0,0,3.237,14.37,2.958,2.958,0,0,1,.115,2.885,59.128,59.128,0,0,0,4.813,61.154,2.939,2.939,0,0,1,.559,1.622l.88,23.308h8.134l3.665-7.468a2.977,2.977,0,0,1,4.239-1.217,59.114,59.114,0,0,0,61.85-.092,3.088,3.088,0,0,1,1.561-.428Zm-65.829,4.446ZM102.067,190.365ZM211.435,124.85ZM184.271,96.8Z" transform="translate(0 0)" fill="#333"/>
    <path id="路径_11" data-name="路径 11" d="M414.487,490.007m-17.431,0a17.431,17.431,0,1,0,17.431-17.431,17.431,17.431,0,0,0-17.431,17.431Z" transform="translate(-257.555 -323.74)" fill="#ff917b"/>
    <path id="路径_12" data-name="路径 12" d="M367.65,464.759a21.589,21.589,0,1,1,21.589-21.589A21.613,21.613,0,0,1,367.65,464.759Zm0-39.328a17.739,17.739,0,1,0,17.739,17.739A17.759,17.759,0,0,0,367.65,425.431Z" transform="translate(-213.588 -279.451)" fill="#333"/>
    <path id="路径_13" data-name="路径 13" d="M313.4,345.118c-3.908,0-7.079-2.355-7.079-5.243s3.18-5.243,7.079-5.243,7.079,2.355,7.079,5.243S317.3,345.118,313.4,345.118Zm0-6.636c-1.04,0-1.88.623-1.88,1.393s.84,1.393,1.88,1.393,1.88-.623,1.88-1.393S314.428,338.482,313.4,338.482Zm23.335,6.636c-3.9,0-7.079-2.355-7.079-5.243s3.18-5.243,7.079-5.243,7.079,2.355,7.079,5.243S340.64,345.118,336.732,345.118Zm0-6.636c-1.04,0-1.88.623-1.88,1.393s.841,1.393,1.88,1.393,1.88-.623,1.88-1.393S337.772,338.482,336.732,338.482Zm-28.2-22.738c-1.438,0-2.6-.86-2.6-1.925,0-3.164-3.475-5.737-7.747-5.737s-7.747,2.574-7.747,5.737c0,1.065-1.161,1.925-2.6,1.925s-2.6-.86-2.6-1.925c0-5.288,5.806-9.588,12.946-9.588s12.946,4.3,12.946,9.588C311.127,314.884,309.966,315.744,308.527,315.744Zm53.706,0c-1.438,0-2.6-.86-2.6-1.925,0-3.164-3.475-5.737-7.747-5.737s-7.747,2.574-7.747,5.737c0,1.065-1.161,1.925-2.6,1.925s-2.6-.86-2.6-1.925c0-5.288,5.806-9.588,12.946-9.588s12.946,4.3,12.946,9.588C364.833,314.884,363.672,315.744,362.233,315.744Z" transform="translate(-170.709 -181.775)" fill="#333"/>
  </g>
</svg>
